<svg id="Layer_1" data-name="Layer 1" xmlns="http://www.w3.org/2000/svg" viewBox="0 0 587.4 325.08"><defs><style>.cls-1{fill:#1a3561;}.cls-2{fill:#0457a5;}.cls-3{fill:#32454f;}</style></defs><path id="O" class="cls-1" d="M514.85,519.1a76.64,76.64,0,0,0-8-22.67,71.39,71.39,0,0,0-16.24-20.2,67.92,67.92,0,0,0-9.45-6.8l-.49-.3a70.22,70.22,0,0,0-11.71-5.53,75.11,75.11,0,0,0-49.93,0,71.37,71.37,0,0,0-11.75,5.53l-.49.3a68.68,68.68,0,0,0-8.32,5.81,71.16,71.16,0,0,0-17.56,21.19q-9.67,17.51-9.66,39.42t9.66,39.42a70.76,70.76,0,0,0,46.57,35.3,75.93,75.93,0,0,0,32.87,0,69.34,69.34,0,0,0,20.12-8,70.63,70.63,0,0,0,26.27-27.3,75.71,75.71,0,0,0,8.14-22.79,88,88,0,0,0,1.52-16.63A89.27,89.27,0,0,0,514.85,519.1Zm-119.3,70.75-.63-.57c1.73-4.49,3.48-9,5.24-13.55,3,3,5.73,5.84,8.72,8.9Zm15.12-7.37-8.37-8.42,41.24-41.19c2.68,2.68,5.6,5.61,8.36,8.39Zm43-42.88-8.43-8.52,34.69-34.5c-2.42-3.49-5.48-3.76-8.18-1.12-4.48,4.38-8.87,8.83-13.31,13.26q-8.88,8.91-17.77,17.79c-.29.29-.52.73-.86.84a12.82,12.82,0,0,1-2.15.32,8.16,8.16,0,0,1,.21-2.12c.19-.48.76-.82,1.16-1.24l30.56-30.53c3.76-3.74,7.74-4,11.6-.4,3.27,3.05,6.3,6.34,9.33,9.42Zm36.42-40.46-4.51-4.67q3.18-3,6.64-6.31l4.52,4.6Z" transform="translate(-234.6 -377.46)"/><g id="Graduation_Cap" data-name="Graduation Cap"><path class="cls-2" d="M492.53,463.6q-.18,2.65-.63,5.53a82.85,82.85,0,0,0-10.56-5.53c-15.52-6.94-45.84-16.13-75.17,0a79.75,79.75,0,0,0-14.11,9.95c-1.39-.37-2.79-.71-4.19-1l.44-8.91.38-7.65-28.53-1.68-2-.11h-.08l-.57,0L320.75,452l95.94-74.49,118.1,19.86-42.21,31s-30.38-14.45-60.2-6.71C432.38,421.59,495.92,414.36,492.53,463.6Z" transform="translate(-234.6 -377.46)"/><path class="cls-2" d="M357.08,466.87c0-1,.07-2.12.11-3.27.05-1.4.09-2.85.15-4.23.07-2.1.16-4,.22-5.25l.57,0,2,.11h0c-.05,1.25-.17,3.15-.3,5.23-.08,1.33-.18,2.74-.27,4.1s-.15,2.48-.2,3.59Z" transform="translate(-234.6 -377.46)"/></g><path id="Book" class="cls-2" d="M566.16,463.93V591c-.9,0-1.8,0-2.69.07-.6,0-1.21,0-1.81.07l-1.46.07c-1,0-2,.11-3,.19l-1.6.13h-.09c-.54.05-1.08.09-1.61.15q-6.07.57-12,1.64l-1,.17-2.4.47c-.85.17-1.7.35-2.54.54-3.15.7-6.28,1.51-9.37,2.42l-1.77.54c-.67.2-1.33.41-2,.64l-1,.32c-.33.1-.66.22-1,.34l-2,.69-2,.73-1.36.51c-1.17.45-2.33.93-3.5,1.42l-1.73.74-1.74.77-1.72.79-1.71.82c-1.15.55-2.29,1.12-3.42,1.7l-1.69.9-1.69.91-1.68.94-1.68,1q-2.07,1.22-4.08,2.48c-2.68,1.69-5.28,3.48-7.8,5.34-1.26.93-2.5,1.89-3.72,2.85h0c-.71.56-1.41,1.13-2.11,1.7l-1.28,1.08L475,625c-1.46,1.27-2.89,2.58-4.29,3.9h0l-1.18,1.15c-.3.29-.6.58-.89.88-.69.68-1.36,1.37-2,2.06s-1.33,1.4-2,2.11c-.34.36-.66.72-1,1.08s-.85.94-1.26,1.41a.28.28,0,0,0-.09.1c-.79.9-1.56,1.8-2.32,2.72-.23.27-.46.54-.68.82-.36.43-.7.86-1.06,1.31l-.13.16c-.43.53-.85,1.07-1.26,1.61l-1,1.31-.77,1c-.38.52-.77,1-1.15,1.57s-.91,1.27-1.36,1.92-.9,1.3-1.33,2-.91,1.36-1.36,2-.84,1.28-1.24,1.92c0,0,0,0,0,.06-.41.65-.82,1.31-1.22,2q-1.86,3.06-3.62,6.23c-.43-.81-.76-1.49-1.12-2.15l-.84-1.52-.67-1.18,0,0c-.31-.55-.64-1.1-1-1.64-.42-.71-.86-1.43-1.31-2.13h0c-.43-.69-.86-1.37-1.31-2l-.33-.49c-.33-.51-.67-1-1-1.5-.5-.74-1-1.46-1.53-2.18s-1-1.34-1.47-2-1-1.33-1.51-2c-1-1.31-2.06-2.6-3.14-3.86-.52-.64-1.06-1.27-1.61-1.89s-1.11-1.25-1.66-1.86-1.13-1.23-1.7-1.83-1.14-1.21-1.73-1.8-1-1-1.54-1.56l-.47-.48c-.5-.5-1-1-1.53-1.49a147.84,147.84,0,0,0-62.45-35.68c-3.95-1.13-7.93-2.14-11.94-3s-8.05-1.54-12.13-2.06c-3.56-.46-7.14-.78-10.7-1.17v-125c7.34.47,14.67.77,22,1.45q3.3.31,6.6.69c2.49.28,5,.6,7.46.93h0c0,.55-.05,1.11-.08,1.67l0,.71,0,.67a2.25,2.25,0,0,1-1.55,2.37,6.17,6.17,0,0,0-1.18,10.58,2.18,2.18,0,0,1,.83,2.69c-1,4.28-2,8.58-3,12.87-.91,4-1.84,7.9-2.83,12.2,2.65.14,5.07.34,7.47.35.39,0,1-.71,1.16-1.22.4-1.57.62-3.19,1-5.34,1.28,2.22,2.34,3.91,3.25,5.7a2.06,2.06,0,0,0,2.93,1.11q-2.8-13.68-5.55-27.17c.28-.21.41-.32.56-.42a6.13,6.13,0,0,0,3.47-5.82,6.26,6.26,0,0,0-3.49-5.62,2.4,2.4,0,0,1-.84-1.77q0-.39,0-.84c0-.81,0-1.62.08-2.42h0l5.08.73c1.65.25,3.3.52,5,.81q9.29,1.57,18.44,3.78l-.25,5.2c1.47-1.47,3-2.86,4.44-4.16.94.23,1.87.47,2.8.72a75.41,75.41,0,0,0-16.55,20.61c-6.68,12.09-10.05,25.87-10.05,41s3.37,28.89,10.05,41a74.56,74.56,0,0,0,131,0c6.68-12.09,10.06-25.87,10.06-41s-3.35-28.87-10-41A74.7,74.7,0,0,0,494,475.17a313.88,313.88,0,0,1,33.64-8.43A164.27,164.27,0,0,1,548.34,464c1.55-.1,3.09-.26,4.63-.4h10.39l1.14.13.86.1.57.07A1.81,1.81,0,0,0,566.16,463.93Z" transform="translate(-234.6 -377.46)"/><path id="Diamond" class="cls-2" d="M458.74,685.82c-6.5,4.16-10.89,10.22-15.06,16.72a53.08,53.08,0,0,0-14.47-16.79c6.4-5.77,10.92-12.85,14.49-20.86A59.45,59.45,0,0,0,458.74,685.82Z" transform="translate(-234.6 -377.46)"/><g id="Main_text" data-name="Main text"><path class="cls-1" d="M269.09,562.16h38.7v26.1H234.6v-124h34.49Z" transform="translate(-234.6 -377.46)"/><path class="cls-1" d="M676.13,535.37a30.26,30.26,0,0,1,6.39,19.09q0,16.11-10.68,24.95t-30.65,8.85H579.91v-124h59.88q18.74,0,29.33,8.23t10.6,23.81q0,11-5.78,18.48a26.59,26.59,0,0,1-15.23,9.72A30.13,30.13,0,0,1,676.13,535.37ZM614.4,513.83h17.34q13,0,13-10.85,0-11.21-13.14-11.21H614.4Zm32.92,35.55q0-11.55-13.48-11.56H614.4v22.77h19.44Q647.33,560.59,647.32,549.38Z" transform="translate(-234.6 -377.46)"/><path class="cls-1" d="M775.33,567.59h-44l-6.83,20.67H688.3L733.65,464.8H773.4l45.18,123.46H782.16Zm-8.58-25.91L753.44,501.4,740,541.68Z" transform="translate(-234.6 -377.46)"/></g><g id="Scholarly_Consulting" data-name="Scholarly Consulting"><path class="cls-3" d="M525.39,642.18a5.49,5.49,0,0,1-2.31,2.18,8.12,8.12,0,0,1-3.8.82,9.46,9.46,0,0,1-3.92-.78,6.82,6.82,0,0,1-2.76-2.17,6.16,6.16,0,0,1-1.19-3.22h3.71a3.8,3.8,0,0,0,1.2,2.4,3.88,3.88,0,0,0,2.81,1,3.35,3.35,0,0,0,2.45-.85,3,3,0,0,0,.86-2.19,2.85,2.85,0,0,0-.63-1.9,4.5,4.5,0,0,0-1.58-1.17c-.63-.28-1.49-.61-2.59-1a22.37,22.37,0,0,1-3.27-1.28,5.9,5.9,0,0,1-2.14-1.85,5.31,5.31,0,0,1-.88-3.19,5.41,5.41,0,0,1,.85-3,5.55,5.55,0,0,1,2.43-2,8.9,8.9,0,0,1,3.65-.71,8,8,0,0,1,5.21,1.58,6,6,0,0,1,2.21,4.13H522a3.69,3.69,0,0,0-1.14-2.08,3.62,3.62,0,0,0-2.54-.86,3.55,3.55,0,0,0-2.34.74,3,3,0,0,0-.27,4,4.19,4.19,0,0,0,1.53,1.13c.62.27,1.46.59,2.54.95a22.11,22.11,0,0,1,3.33,1.3,6,6,0,0,1,2.19,1.9,5.54,5.54,0,0,1,.89,3.28A5.85,5.85,0,0,1,525.39,642.18Z" transform="translate(-234.6 -377.46)"/><path class="cls-3" d="M542.44,629.72a7.44,7.44,0,0,1,2.65,4.67h-3.68a3.91,3.91,0,0,0-1.47-2.48A4.68,4.68,0,0,0,537,631a4.42,4.42,0,0,0-3.34,1.41,7.13,7.13,0,0,0,0,8.32,4.4,4.4,0,0,0,3.34,1.43,4.69,4.69,0,0,0,2.94-.91,4,4,0,0,0,1.47-2.5h3.68a7.47,7.47,0,0,1-2.65,4.68,8.2,8.2,0,0,1-5.38,1.74,8.74,8.74,0,0,1-4.3-1,7.38,7.38,0,0,1-2.93-3,10.4,10.4,0,0,1,0-9.15,7.41,7.41,0,0,1,2.93-3,8.74,8.74,0,0,1,4.3-1A8.3,8.3,0,0,1,542.44,629.72Z" transform="translate(-234.6 -377.46)"/><path class="cls-3" d="M562.47,629.83a7.55,7.55,0,0,1,1.77,5.38V645h-3.47v-9.39a4.89,4.89,0,0,0-1.15-3.48,4.13,4.13,0,0,0-3.16-1.23,4.35,4.35,0,0,0-3.32,1.32,5.47,5.47,0,0,0-1.24,3.88V645h-3.47V622.47h3.47v9.42a5.53,5.53,0,0,1,2.25-2.91,6.5,6.5,0,0,1,3.64-1A6.08,6.08,0,0,1,562.47,629.83Z" transform="translate(-234.6 -377.46)"/><path class="cls-3" d="M580.32,629a7.49,7.49,0,0,1,3,3,10.15,10.15,0,0,1,0,9.15,7.45,7.45,0,0,1-3,3,9.2,9.2,0,0,1-4.38,1,9.09,9.09,0,0,1-4.36-1,7.48,7.48,0,0,1-3-3,10,10,0,0,1,0-9.14,7.55,7.55,0,0,1,3-3,9.09,9.09,0,0,1,4.36-1A9.2,9.2,0,0,1,580.32,629Zm-6.84,2.58a4.54,4.54,0,0,0-1.81,1.87,7.36,7.36,0,0,0,0,6.18,4.51,4.51,0,0,0,1.81,1.86,5.27,5.27,0,0,0,4.92,0,4.45,4.45,0,0,0,1.81-1.86,7.26,7.26,0,0,0,0-6.18,4.48,4.48,0,0,0-1.81-1.87,5.27,5.27,0,0,0-4.92,0Z" transform="translate(-234.6 -377.46)"/><path class="cls-3" d="M591.26,622.47V645H587.8V622.47Z" transform="translate(-234.6 -377.46)"/><path class="cls-3" d="M606.06,629.13a6,6,0,0,1,2.28,3v-3.9h3.47V645h-3.47v-3.89a6,6,0,0,1-2.28,3,6.62,6.62,0,0,1-3.89,1.13,7.39,7.39,0,0,1-3.9-1,7,7,0,0,1-2.69-3,11.17,11.17,0,0,1,0-9.15,7.06,7.06,0,0,1,2.69-3,7.39,7.39,0,0,1,3.9-1A6.62,6.62,0,0,1,606.06,629.13Zm-6.52,3.39a6.65,6.65,0,0,0,0,8.11,4.83,4.83,0,0,0,3.7,1.48,5,5,0,0,0,2.61-.69,4.78,4.78,0,0,0,1.82-1.93,6.65,6.65,0,0,0,0-5.82,4.74,4.74,0,0,0-1.82-1.94,5,5,0,0,0-2.61-.69A4.83,4.83,0,0,0,599.54,632.52Z" transform="translate(-234.6 -377.46)"/><path class="cls-3" d="M621.87,628.9a6.88,6.88,0,0,1,3.65-1v3.77h-1a5.67,5.67,0,0,0-3.66,1.11,4.43,4.43,0,0,0-1.38,3.66V645H616V628.21h3.47v3.29A6.48,6.48,0,0,1,621.87,628.9Z" transform="translate(-234.6 -377.46)"/><path class="cls-3" d="M631.57,622.47V645H628.1V622.47Z" transform="translate(-234.6 -377.46)"/><path class="cls-3" d="M637.74,628.21l5,12.32,4.65-12.32h3.86l-10.12,24.72h-3.86l3.62-8.36-7-16.36Z" transform="translate(-234.6 -377.46)"/><path class="cls-3" d="M676.8,625.3a9.79,9.79,0,0,1,3.52,5.44h-3.68a6.51,6.51,0,0,0-2.41-3.09,7,7,0,0,0-4.06-1.14,6.28,6.28,0,0,0-3.42,1,6.43,6.43,0,0,0-2.37,2.69,10,10,0,0,0,0,8.14,6.5,6.5,0,0,0,2.37,2.69,6.28,6.28,0,0,0,3.42.94,7,7,0,0,0,4.06-1.14,6.5,6.5,0,0,0,2.41-3h3.68a9.76,9.76,0,0,1-3.52,5.43,10.61,10.61,0,0,1-6.57,2,10.29,10.29,0,0,1-5.38-1.39,9.37,9.37,0,0,1-3.62-3.86,13.29,13.29,0,0,1,0-11.34,9.45,9.45,0,0,1,3.62-3.87,10.3,10.3,0,0,1,5.38-1.4A10.49,10.49,0,0,1,676.8,625.3Z" transform="translate(-234.6 -377.46)"/><path class="cls-3" d="M695.82,629a7.43,7.43,0,0,1,3,3,10.06,10.06,0,0,1,0,9.15,7.39,7.39,0,0,1-3,3,9.7,9.7,0,0,1-8.74,0,7.6,7.6,0,0,1-3-3,10,10,0,0,1,0-9.14,7.68,7.68,0,0,1,3-3,9.7,9.7,0,0,1,8.74,0ZM689,631.62a4.46,4.46,0,0,0-1.8,1.87,7.26,7.26,0,0,0,0,6.18,4.43,4.43,0,0,0,1.8,1.86,5.29,5.29,0,0,0,4.93,0,4.51,4.51,0,0,0,1.81-1.86,7.36,7.36,0,0,0,0-6.18,4.54,4.54,0,0,0-1.81-1.87,5.29,5.29,0,0,0-4.93,0Z" transform="translate(-234.6 -377.46)"/><path class="cls-3" d="M717.34,629.83a7.55,7.55,0,0,1,1.77,5.38V645h-3.47v-9.39a4.89,4.89,0,0,0-1.15-3.48,4.13,4.13,0,0,0-3.16-1.23,4.35,4.35,0,0,0-3.32,1.32,5.47,5.47,0,0,0-1.24,3.88V645H703.3V628.21h3.47v3.68A5.53,5.53,0,0,1,709,629a6.5,6.5,0,0,1,3.64-1A6.08,6.08,0,0,1,717.34,629.83Z" transform="translate(-234.6 -377.46)"/><path class="cls-3" d="M733.38,629.51a6.3,6.3,0,0,1,2.17,4h-3.28a3.53,3.53,0,0,0-1.17-2.21,3.7,3.7,0,0,0-2.54-.83,3,3,0,0,0-2,.62,2.1,2.1,0,0,0-.71,1.68,1.68,1.68,0,0,0,.51,1.28,3.59,3.59,0,0,0,1.29.76,22.67,22.67,0,0,0,2.21.61,22.25,22.25,0,0,1,3,.88,5,5,0,0,1,2,1.45,4,4,0,0,1,.84,2.68,4.21,4.21,0,0,1-1.6,3.41,6.59,6.59,0,0,1-4.3,1.31,8.17,8.17,0,0,1-5.06-1.46,6,6,0,0,1-2.33-4.08h3.38a3.14,3.14,0,0,0,1.21,2.22,4.33,4.33,0,0,0,2.8.85,2.78,2.78,0,0,0,2-.65,2.18,2.18,0,0,0,.71-1.66A1.83,1.83,0,0,0,732,639a3.72,3.72,0,0,0-1.37-.81,19.36,19.36,0,0,0-2.25-.59,27.57,27.57,0,0,1-3-.85,4.68,4.68,0,0,1-1.94-1.39,3.87,3.87,0,0,1-.81-2.6,4.27,4.27,0,0,1,1.6-3.44,6.68,6.68,0,0,1,4.42-1.33A7,7,0,0,1,733.38,629.51Z" transform="translate(-234.6 -377.46)"/><path class="cls-3" d="M754.64,628.21V645h-3.49v-3.64a5.46,5.46,0,0,1-2.22,2.87,6.65,6.65,0,0,1-3.68,1,6.08,6.08,0,0,1-4.68-1.89,7.55,7.55,0,0,1-1.77-5.38v-9.73h3.47v9.37a4.93,4.93,0,0,0,1.15,3.51,4.16,4.16,0,0,0,3.17,1.23A4.32,4.32,0,0,0,749.9,641a5.51,5.51,0,0,0,1.25-3.89v-8.88Z" transform="translate(-234.6 -377.46)"/><path class="cls-3" d="M762.27,622.47V645h-3.46V622.47Z" transform="translate(-234.6 -377.46)"/><path class="cls-3" d="M774.89,642v3h-2.13a5.74,5.74,0,0,1-4.06-1.29c-.92-.86-1.38-2.29-1.38-4.3v-8.21h-2.4v-2.95h2.4v-4.16h3.49v4.16h4.05v2.95h-4.05v8.27a2.88,2.88,0,0,0,.53,2,2.6,2.6,0,0,0,1.87.54Z" transform="translate(-234.6 -377.46)"/><path class="cls-3" d="M778.26,621.89a2.25,2.25,0,0,1,1.61-.57,2.33,2.33,0,0,1,1.63.57,1.93,1.93,0,0,1,.62,1.46,1.82,1.82,0,0,1-.62,1.43,2.37,2.37,0,0,1-1.63.55,2.28,2.28,0,0,1-1.61-.55,1.81,1.81,0,0,1-.61-1.43A1.92,1.92,0,0,1,778.26,621.89Zm3.34,6.32V645h-3.46V628.21Z" transform="translate(-234.6 -377.46)"/><path class="cls-3" d="M799.84,629.83a7.55,7.55,0,0,1,1.76,5.38V645h-3.46v-9.39a4.89,4.89,0,0,0-1.16-3.48,4.12,4.12,0,0,0-3.16-1.23,4.33,4.33,0,0,0-3.31,1.32,5.47,5.47,0,0,0-1.25,3.88V645H785.8V628.21h3.46v3.68a5.63,5.63,0,0,1,2.25-2.91,6.53,6.53,0,0,1,3.65-1A6.08,6.08,0,0,1,799.84,629.83Z" transform="translate(-234.6 -377.46)"/><path class="cls-3" d="M816.25,629.13a6,6,0,0,1,2.28,3v-3.9H822v16.94a8.66,8.66,0,0,1-1,4.14,7,7,0,0,1-2.75,2.85,8.34,8.34,0,0,1-4.25,1,9.11,9.11,0,0,1-5.7-1.67,7.19,7.19,0,0,1-2.72-4.53h3.43a4,4,0,0,0,1.64,2.32,5.35,5.35,0,0,0,3.1.84,4.72,4.72,0,0,0,3.41-1.28,4.87,4.87,0,0,0,1.33-3.7v-4.08a6,6,0,0,1-2.28,3,6.62,6.62,0,0,1-3.89,1.13,7.41,7.41,0,0,1-3.9-1,7,7,0,0,1-2.69-3,11.17,11.17,0,0,1,0-9.15,7.06,7.06,0,0,1,2.69-3,7.41,7.41,0,0,1,3.9-1A6.62,6.62,0,0,1,816.25,629.13Zm-6.52,3.39a6.65,6.65,0,0,0,0,8.11,4.83,4.83,0,0,0,3.7,1.48,5,5,0,0,0,2.61-.69,4.87,4.87,0,0,0,1.83-1.93,6.75,6.75,0,0,0,0-5.82,4.83,4.83,0,0,0-1.83-1.94,5,5,0,0,0-2.61-.69A4.83,4.83,0,0,0,809.73,632.52Z" transform="translate(-234.6 -377.46)"/></g></svg>